# xmcd CD database file
#
# Track frame offsets:
#	150
#	15001
#	30565
#	49084
#	64854
#	80426
#	92726
#	107881
#	123473
#	140740
#	158640
#	173452
#	191822
#	204738
#	221907
#
# Disc length: 3215 seconds
#
# Revision: 0
# Processed by: cddbd v1.5.2PL0 Copyright (c) Steve Scherf et al.
# Submitted via: CDex 1.70beta2
#
DISCID=cd0c8d0f
DTITLE=Juan Luis Guerra  - La llave de mi corazon
DYEAR=2007
DGENRE=Merengue
TTITLE0=Medicine for my soul
TTITLE1=La travesia
TTITLE2=Te contaran
TTITLE3=Que me des tu carino
TTITLE4=Como yo
TTITLE5=Si tu no bailas conmigo
TTITLE6=Solo tengo ojos para ti
TTITLE7=Amores
TTITLE8=Cancioncita de amor
TTITLE9=Sabia manera
TTITLE10=La llave de mi corazon
TTITLE11=Something good
TTITLE12=A la vera
TTITLE13=Como rio
TTITLE14=Bendita la luz
EXTD=YEAR: 2007
EXTT0=
EXTT1=
EXTT2=
EXTT3=
EXTT4=
EXTT5=
EXTT6=
EXTT7=
EXTT8=
EXTT9=
EXTT10=
EXTT11=
EXTT12=
EXTT13=
EXTT14=
PLAYORDER=
